<svg width="185" height="185" viewBox="0 0 185 185" fill="none" xmlns="http://www.w3.org/2000/svg">
<circle cx="92.5" cy="92.5" r="92.5" fill="#FF892C"/>
<circle cx="92.5" cy="92.5" r="90.5" stroke="#CC5803" stroke-opacity="0.65" stroke-width="4"/>
<path d="M44.052 55.4093L45.072 55.1359C47.5036 54.4844 49.5733 54.6255 51.2812 55.5593C52.9835 56.4725 54.1246 58.0109 54.7043 60.1746C55.1074 61.6789 55.1366 63.1066 54.7919 64.4579C54.4417 65.7885 53.7855 66.9251 52.8233 67.8676C51.8556 68.7895 50.6711 69.4381 49.2699 69.8136L49.0226 69.8798L51.2837 78.3182L50.2637 78.5915L44.052 55.4093ZM49.0915 68.9006C50.9667 68.3982 52.3473 67.4099 53.2333 65.9356C54.1137 64.4408 54.2696 62.6322 53.7009 60.5097C53.1598 58.4903 52.179 57.0967 50.7585 56.3288C49.3531 55.5348 47.6201 55.4139 45.5595 55.9661L45.3122 56.0323L48.7824 68.9835L49.0915 68.9006ZM67.3233 74.5504C65.9221 74.9259 64.5637 74.9254 63.2481 74.5491C61.927 74.1522 60.7952 73.4726 59.8528 72.5104C58.9048 71.5276 58.2513 70.3665 57.8924 69.0271C57.539 67.7083 57.5299 66.3966 57.865 65.0921C58.2207 63.7821 58.8666 62.6483 59.8027 61.6907C60.7538 60.707 61.9197 60.0302 63.3004 59.6603C64.6604 59.2958 65.9879 59.3046 67.2828 59.6864C68.5929 60.0421 69.7191 60.7011 70.6616 61.6633C71.6041 62.6255 72.252 63.766 72.6054 65.0848C72.9753 66.4654 73.0058 67.8155 72.6968 69.1351C72.3823 70.4341 71.7598 71.5727 70.8292 72.5509C69.9138 73.5029 68.7451 74.1694 67.3233 74.5504ZM67.0914 73.685C68.266 73.3702 69.2574 72.7843 70.0658 71.9272C70.8742 71.0701 71.4137 70.0752 71.6845 68.9426C71.9703 67.7838 71.9531 66.6068 71.6328 65.4116C71.3181 64.2371 70.7473 63.2195 69.9204 62.3588C69.0934 61.4982 68.1157 60.8988 66.9871 60.5608C65.8584 60.2227 64.7068 60.211 63.5323 60.5257C62.3577 60.8405 61.3587 61.4394 60.5352 62.3227C59.7268 63.1798 59.1694 64.1905 58.863 65.3548C58.5772 66.5136 58.5916 67.6802 58.9064 68.8548C59.2211 70.0294 59.7919 71.047 60.6188 71.9076C61.4608 72.7421 62.4462 73.3284 63.5748 73.6665C64.724 73.999 65.8962 74.0052 67.0914 73.685ZM80.8445 56.417L73.7662 58.3136L73.5343 57.4482L82.3744 55.0794L77.9258 70.2518L85.7768 68.1482L86.0087 69.0136L76.4267 71.5811L80.8445 56.417ZM85.1326 54.3404L86.1218 54.0754L86.95 57.1663C87.1272 56.0145 87.6791 54.9832 88.6056 54.0724C89.5266 53.1409 90.6465 52.4985 91.9653 52.1452C93.6756 51.6869 95.1717 51.8713 96.4534 52.6984C97.7502 53.4994 98.6582 54.8684 99.1772 56.8054L101.347 64.9037L100.358 65.1687L98.1881 57.0704C97.7408 55.4013 96.9809 54.2135 95.9081 53.5071C94.856 52.7951 93.5984 52.6352 92.1354 53.0272C91.0638 53.3143 90.141 53.8266 89.3668 54.5641C88.6077 55.2755 88.0735 56.1254 87.7641 57.1138C87.4753 58.0967 87.4745 59.1239 87.7616 60.1955L89.8487 67.9847L88.8596 68.2497L85.1326 54.3404ZM111.887 61.5495C112.958 61.2624 113.904 60.7109 114.723 59.895C115.543 59.0791 116.142 58.1014 116.521 56.9617L116.944 58.5381C116.408 59.5873 115.739 60.4291 114.937 61.0635C114.13 61.6774 113.149 62.1389 111.995 62.4481C110.718 62.7905 109.421 62.7735 108.105 62.3971C106.81 62.0153 105.671 61.3488 104.687 60.3976C103.724 59.441 103.072 58.3238 102.729 57.0462C102.359 55.6656 102.358 54.3409 102.725 53.072C103.086 51.7826 103.75 50.677 104.718 49.7551C105.706 48.8277 106.901 48.1763 108.302 47.8008C110.445 47.2266 112.495 47.5828 114.452 48.8694L107.314 61.052C108.143 61.4262 108.913 61.6616 109.624 61.7584C110.329 61.8345 111.083 61.7649 111.887 61.5495ZM103.694 56.6885C104.152 58.3988 105.111 59.71 106.57 60.6221L113.216 49.2007C112.376 48.7854 111.603 48.5396 110.898 48.4635C110.188 48.3668 109.389 48.4371 108.503 48.6746C107.246 49.0114 106.198 49.5905 105.358 50.4119C104.533 51.2072 103.969 52.1533 103.667 53.2503C103.364 54.3472 103.373 55.4933 103.694 56.6885ZM117.137 42.3525C116.849 42.4298 116.564 42.3958 116.282 42.2505C116.02 42.0996 115.848 41.8696 115.766 41.5606C115.688 41.2721 115.725 40.9972 115.876 40.7359C116.047 40.4691 116.277 40.297 116.566 40.2197C116.854 40.1424 117.129 40.1792 117.39 40.3301C117.672 40.4754 117.852 40.6923 117.929 40.9808C118.012 41.2899 117.968 41.5778 117.796 41.8446C117.645 42.1059 117.426 42.2752 117.137 42.3525ZM118.211 66.017C119.447 65.6858 120.374 64.9845 120.993 63.9132C121.617 62.8626 121.763 61.7191 121.432 60.4827L117.465 45.677L118.454 45.412L122.421 60.2177C122.686 61.2068 122.689 62.1667 122.431 63.0973C122.172 64.028 121.689 64.8201 120.98 65.4737C120.278 66.1479 119.432 66.6175 118.443 66.8825L118.211 66.017ZM39.0356 120.27C38.0464 120.535 37.1265 120.605 36.2757 120.479C35.4194 120.333 34.7546 120.036 34.2814 119.589L33.8424 117.951C34.4714 118.732 35.1838 119.248 35.9798 119.498C36.7702 119.728 37.6909 119.702 38.7418 119.421C39.7515 119.15 40.4827 118.623 40.9352 117.839C41.3823 117.035 41.4733 116.138 41.2082 115.149C40.9818 114.304 40.6328 113.702 40.161 113.342C39.6837 112.962 38.99 112.64 38.08 112.376L36.7232 112.011C35.7403 111.722 34.9938 111.491 34.4838 111.319C33.9888 111.12 33.568 110.868 33.2214 110.564C32.8692 110.239 32.6241 109.818 32.486 109.303C32.2652 108.479 32.377 107.742 32.8214 107.093C33.2659 106.444 33.9518 105.995 34.8791 105.747C36.0124 105.443 37.0293 105.447 37.9298 105.757L38.2942 107.117C37.4291 106.444 36.3989 106.267 35.2037 106.587C34.5443 106.764 34.0527 107.072 33.7289 107.512C33.4051 107.953 33.3123 108.43 33.4503 108.945C33.5718 109.399 33.8031 109.767 34.1442 110.051C34.4798 110.315 34.9027 110.533 35.4127 110.705C35.9433 110.872 36.8011 111.106 37.986 111.407C39.1971 111.723 40.1355 112.134 40.8012 112.641C41.4614 113.126 41.9268 113.874 42.1973 114.884C42.5397 116.161 42.3933 117.305 41.7583 118.314C41.1383 119.298 40.2307 119.949 39.0356 120.27ZM29.7161 101.067L31.0143 100.72L34.4262 102.82L36.3617 99.2868L37.629 98.9472L35.1195 103.429L34.1922 103.678L29.7161 101.067ZM42.5942 104.044L43.5833 103.779L44.4944 107.179C44.7526 105.917 45.3779 104.789 46.3702 103.794C47.3571 102.779 48.4996 102.097 49.7978 101.749C51.1372 101.39 52.4516 101.391 53.7411 101.753C55.0511 102.108 56.1849 102.754 57.1425 103.69C58.1 104.626 58.7555 105.754 59.1089 107.073C59.4623 108.391 59.4583 109.696 59.0971 110.985C58.7358 112.274 58.0769 113.401 57.1202 114.364C56.1842 115.321 55.0464 115.98 53.707 116.338C52.45 116.675 51.1431 116.661 49.7864 116.296C48.4502 115.925 47.3239 115.266 46.4076 114.319L48.9668 123.87L47.9777 124.135L42.5942 104.044ZM53.5369 115.456C54.6703 115.153 55.6439 114.583 56.4578 113.746C57.2662 112.889 57.8188 111.902 58.1157 110.784C58.4276 109.64 58.429 108.492 58.1198 107.338C57.8161 106.204 57.2433 105.22 56.4012 104.386C55.5592 103.551 54.5767 102.975 53.4536 102.658C52.325 102.32 51.194 102.303 50.0606 102.606C48.9273 102.91 47.9461 103.493 47.1171 104.356C46.3087 105.213 45.7383 106.216 45.4057 107.365C45.0938 108.509 45.0896 109.647 45.3933 110.781C45.697 111.914 46.2698 112.898 47.1118 113.733C47.9689 114.541 48.9721 115.111 50.1213 115.444C51.265 115.756 52.4036 115.76 53.5369 115.456ZM70.7141 111.781C69.3952 112.135 68.0808 112.134 66.7708 111.778C65.4607 111.422 64.3269 110.776 63.3694 109.84C62.4063 108.884 61.7508 107.756 61.403 106.458C61.0551 105.16 61.0618 103.866 61.4231 102.576C61.7788 101.266 62.435 100.13 63.3916 99.1668C64.3483 98.2037 65.486 97.5455 66.8049 97.1921C68.1443 96.8332 69.5082 96.8542 70.8966 97.2552C72.2795 97.6356 73.3598 98.329 74.1374 99.3353L73.2015 95.8425L74.1906 95.5775L77.9176 109.487L76.9285 109.752L76.0009 106.29C75.7537 107.593 75.1367 108.752 74.1499 109.768C73.1781 110.757 72.0329 111.428 70.7141 111.781ZM70.544 110.899C71.6773 110.596 72.651 110.026 73.4649 109.189C74.2732 108.332 74.8259 107.345 75.1227 106.227C75.4347 105.083 75.436 103.935 75.1268 102.781C74.8232 101.647 74.2503 100.663 73.4083 99.8289C72.5663 98.9943 71.5837 98.4184 70.4606 98.1009C69.332 97.7628 68.201 97.7456 67.0677 98.0493C65.9343 98.353 64.9531 98.9361 64.1242 99.7987C63.3158 100.656 62.7453 101.659 62.4128 102.808C62.1008 103.952 62.0967 105.09 62.4004 106.224C62.704 107.357 63.2769 108.341 64.1189 109.176C64.976 109.984 65.9792 110.554 67.1284 110.887C68.2721 111.199 69.4106 111.203 70.544 110.899ZM78.092 94.5321L79.0811 94.2671L79.9093 97.3581C80.0866 96.2063 80.6385 95.175 81.565 94.2641C82.486 93.3327 83.6058 92.6903 84.9247 92.3369C86.635 91.8786 88.131 92.063 89.4128 92.8902C90.7096 93.6911 91.6175 95.0601 92.1365 96.9971L94.3065 105.095L93.3174 105.36L91.1474 97.2622C90.7002 95.593 89.9402 94.4053 88.8675 93.6988C87.8154 92.9869 86.5578 92.8269 85.0947 93.219C84.0232 93.5061 83.1004 94.0184 82.3262 94.7559C81.5671 95.4672 81.0329 96.3171 80.7235 97.3056C80.4347 98.2885 80.4339 99.3157 80.721 100.387L82.8081 108.176L81.819 108.441L78.092 94.5321ZM104.846 101.741C105.918 101.454 106.863 100.903 107.683 100.087C108.502 99.2709 109.101 98.2931 109.481 97.1535L109.903 98.7298C109.367 99.779 108.698 100.621 107.896 101.255C107.089 101.869 106.108 102.331 104.955 102.64C103.677 102.982 102.38 102.965 101.065 102.589C99.7698 102.207 98.6305 101.541 97.6468 100.589C96.6837 99.6327 96.031 98.5156 95.6887 97.238C95.3187 95.8574 95.3171 94.5326 95.6839 93.2638C96.0452 91.9744 96.7096 90.8687 97.6773 89.9468C98.6657 89.0194 99.8604 88.368 101.262 87.9926C103.405 87.4183 105.455 87.7745 107.412 89.0612L100.274 101.244C101.103 101.618 101.873 101.853 102.583 101.95C103.288 102.026 104.043 101.957 104.846 101.741ZM96.6529 96.8802C97.1112 98.5906 98.0699 99.9018 99.529 100.814L106.175 89.3925C105.335 88.9771 104.563 88.7314 103.858 88.6552C103.147 88.5585 102.349 88.6289 101.463 88.8663C100.206 89.2031 99.1572 89.7822 98.3171 90.6036C97.4922 91.3989 96.9285 92.345 96.6261 93.442C96.3238 94.539 96.3327 95.6851 96.6529 96.8802ZM94.6995 83.6552L95.9977 83.3073L100.028 85.2422L102.581 81.5432L103.849 81.2036L100.721 85.8515L99.7938 86.1L94.6995 83.6552ZM118.994 98.7785C118.026 99.0381 117.082 99.0591 116.162 98.8417C115.237 98.6037 114.43 98.1464 113.741 97.4697C113.051 96.7931 112.574 95.9602 112.309 94.9711L107.423 76.7344L108.412 76.4694L113.298 94.706C113.519 95.5303 113.903 96.2224 114.451 96.7825C115.019 97.337 115.685 97.7216 116.45 97.9365C117.208 98.1307 117.979 98.1229 118.762 97.9131L118.994 98.7785ZM125.576 97.0811C124.587 97.3461 123.667 97.4159 122.817 97.2905C121.96 97.1445 121.296 96.8478 120.822 96.4004L120.383 94.7622C121.012 95.5433 121.725 96.0592 122.521 96.3097C123.311 96.5396 124.232 96.5138 125.283 96.2322C126.292 95.9617 127.024 95.4345 127.476 94.6506C127.923 93.8462 128.014 92.9494 127.749 91.9603C127.523 91.1154 127.174 90.5133 126.702 90.1538C126.225 89.7737 125.531 89.4516 124.621 89.1875L123.264 88.8222C122.281 88.5334 121.535 88.3027 121.025 88.1302C120.53 87.9315 120.109 87.6799 119.762 87.3752C119.41 87.0499 119.165 86.6297 119.027 86.1146C118.806 85.2903 118.918 84.5536 119.362 83.9045C119.807 83.2553 120.493 82.8065 121.42 82.558C122.553 82.2543 123.57 82.2579 124.471 82.5688L124.835 83.9288C123.97 83.2551 122.94 83.0784 121.745 83.3986C121.085 83.5753 120.594 83.8837 120.27 84.3239C119.946 84.764 119.853 85.2417 119.991 85.7568C120.113 86.2102 120.344 86.5789 120.685 86.8629C121.021 87.1263 121.444 87.3443 121.954 87.5169C122.484 87.6839 123.342 87.9179 124.527 88.2188C125.738 88.5348 126.676 88.9459 127.342 89.4522C128.002 89.9379 128.468 90.6855 128.738 91.6953C129.081 92.9729 128.934 94.1164 128.299 95.1258C127.679 96.1091 126.772 96.7609 125.576 97.0811ZM126.667 71.6441L127.656 71.3791L131.416 85.412L135.626 79.1159L136.893 78.7763L132.017 86.0462L142.228 92.255L140.899 92.6111L131.864 87.0812L133.851 94.4995L132.862 94.7645L126.667 71.6441ZM151.881 96.2611C149.573 96.8795 147.528 96.5439 145.747 95.2543L145.325 93.6779C146.292 94.5672 147.277 95.1535 148.281 95.4368C149.29 95.7406 150.371 95.738 151.525 95.4288C152.7 95.114 153.633 94.599 154.325 93.8836C155.037 93.1626 155.494 92.3115 155.694 91.33C155.901 90.3692 155.863 89.3633 155.582 88.3124L154.952 85.9633C154.717 87.0643 154.167 88.018 153.3 88.8243C152.449 89.6045 151.436 90.1519 150.262 90.4667C149.087 90.7814 147.978 90.8026 146.933 90.5304C145.888 90.2582 144.984 89.7275 144.22 88.9382C143.477 88.1435 142.943 87.1382 142.617 85.9224L140.447 77.8241L141.436 77.559L143.606 85.6574C143.905 86.7701 144.388 87.6676 145.057 88.3498C145.74 89.0058 146.519 89.4377 147.392 89.6456C148.264 89.8534 149.154 89.8359 150.061 89.5929C151.05 89.3279 151.904 88.8452 152.621 88.1449C153.334 87.4239 153.819 86.5982 154.078 85.6675C154.352 84.7107 154.364 83.7687 154.116 82.8414L151.946 74.7431L152.935 74.4781L156.546 87.9547C156.877 89.191 156.918 90.3728 156.668 91.5C156.444 92.6422 155.925 93.6315 155.111 94.468C154.297 95.3045 153.22 95.9022 151.881 96.2611ZM148.886 69.1359L150.154 68.7963L146.81 73.5022L145.511 73.85L148.886 69.1359ZM87.3696 145.624C86.3805 145.889 85.4606 145.959 84.6098 145.833C83.7535 145.687 83.0887 145.391 82.6155 144.943L82.1765 143.305C82.8054 144.086 83.5179 144.602 84.3139 144.852C85.1043 145.082 86.025 145.057 87.0759 144.775C88.0856 144.504 88.8168 143.977 89.2693 143.193C89.7163 142.389 89.8073 141.492 89.5423 140.503C89.3159 139.658 88.9668 139.056 88.4951 138.696C88.0178 138.316 87.3241 137.994 86.414 137.73L85.0573 137.365C84.0744 137.076 83.3279 136.845 82.8179 136.673C82.3229 136.474 81.9021 136.223 81.5554 135.918C81.2033 135.593 80.9582 135.172 80.8201 134.657C80.5993 133.833 80.7111 133.096 81.1555 132.447C81.6 131.798 82.2859 131.349 83.2132 131.101C84.3465 130.797 85.3634 130.801 86.2639 131.112L86.6283 132.472C85.7631 131.798 84.733 131.621 83.5378 131.941C82.8784 132.118 82.3868 132.426 82.063 132.867C81.7392 133.307 81.6463 133.784 81.7844 134.3C81.9058 134.753 82.1372 135.122 82.4783 135.406C82.8139 135.669 83.2367 135.887 83.7468 136.06C84.2774 136.227 85.1352 136.461 86.3201 136.761C87.5312 137.077 88.4696 137.489 89.1353 137.995C89.7955 138.481 90.2609 139.228 90.5314 140.238C90.8737 141.516 90.7274 142.659 90.0923 143.669C89.4724 144.652 88.5648 145.304 87.3696 145.624ZM102.829 126.209L99.8322 142.351L89.1356 129.878L90.2174 129.588L99.2275 140.094L101.747 126.499L102.829 126.209ZM114.694 137.408C115.766 137.121 116.711 136.569 117.531 135.753C118.35 134.937 118.949 133.96 119.329 132.82L119.751 134.396C119.215 135.445 118.546 136.287 117.744 136.922C116.937 137.536 115.956 137.997 114.802 138.306C113.525 138.649 112.228 138.632 110.913 138.255C109.618 137.873 108.478 137.207 107.495 136.256C106.532 135.299 105.879 134.182 105.537 132.904C105.167 131.524 105.165 130.199 105.532 128.93C105.893 127.641 106.558 126.535 107.525 125.613C108.514 124.686 109.708 124.034 111.11 123.659C113.253 123.085 115.303 123.441 117.26 124.728L110.122 136.91C110.951 137.284 111.721 137.52 112.431 137.617C113.136 137.693 113.891 137.623 114.694 137.408ZM106.501 132.547C106.959 134.257 107.918 135.568 109.377 136.48L116.023 125.059C115.183 124.644 114.411 124.398 113.706 124.322C112.995 124.225 112.197 124.295 111.311 124.533C110.054 124.87 109.005 125.449 108.165 126.27C107.34 127.065 106.776 128.011 106.474 129.108C106.172 130.205 106.181 131.352 106.501 132.547ZM104.547 119.322L105.846 118.974L109.876 120.909L112.429 117.21L113.697 116.87L110.569 121.518L109.642 121.766L104.547 119.322ZM128.508 134.435C126.983 134.844 125.592 134.72 124.334 134.063C123.096 133.401 122.259 132.256 121.823 130.628L117.947 116.162L118.936 115.897L120.435 121.492L124.701 120.349L124.933 121.214L120.667 122.357L122.812 130.363C123.177 131.723 123.866 132.686 124.879 133.254C125.908 133.796 127.04 133.901 128.276 133.57L128.508 134.435Z" fill="black"/>
</svg>
