<svg width="140" height="140" viewBox="0 0 140 140" fill="none" xmlns="http://www.w3.org/2000/svg">
<circle cx="70" cy="70" r="70" fill="#FF892C"/>
<circle cx="70" cy="70" r="68" stroke="#CC5803" stroke-opacity="0.65" stroke-width="4"/>
<path d="M33.5808 41.866L34.3458 41.6611C36.1695 41.1724 37.7218 41.2782 39.0027 41.9786C40.2795 42.6635 41.1353 43.8173 41.5701 45.44C41.8724 46.5682 41.8943 47.6391 41.6358 48.6525C41.3731 49.6505 40.881 50.5029 40.1593 51.2098C39.4335 51.9012 38.5452 52.3877 37.4943 52.6693L37.3088 52.719L39.0046 59.0477L38.2396 59.2527L33.5808 41.866ZM37.3605 51.9846C38.7669 51.6077 39.8023 50.8665 40.4668 49.7608C41.1271 48.6397 41.244 47.2832 40.8175 45.6914C40.4117 44.1768 39.6761 43.1316 38.6107 42.5557C37.5567 41.9602 36.2569 41.8695 34.7114 42.2836L34.526 42.3333L37.1287 52.0467L37.3605 51.9846ZM51.0343 56.2219C49.9834 56.5035 48.9646 56.5032 47.9779 56.2209C46.9871 55.9232 46.1383 55.4136 45.4314 54.6919C44.7204 53.9548 44.2303 53.084 43.9611 52.0794C43.6961 51.0903 43.6893 50.1066 43.9406 49.1282C44.2074 48.1457 44.6918 47.2953 45.3939 46.5771C46.1072 45.8394 46.9816 45.3317 48.0171 45.0543C49.0371 44.781 50.0327 44.7875 51.004 45.0739C51.9865 45.3407 52.8312 45.8349 53.538 46.5566C54.2449 47.2782 54.7309 48.1336 54.9959 49.1227C55.2733 50.1582 55.2962 51.1707 55.0644 52.1604C54.8286 53.1347 54.3617 53.9886 53.6638 54.7223C52.9772 55.4363 52.1007 55.9362 51.0343 56.2219ZM50.8604 55.5728C51.7413 55.3368 52.4849 54.8973 53.0912 54.2545C53.6975 53.6117 54.1021 52.8655 54.3052 52.016C54.5196 51.1469 54.5067 50.2642 54.2665 49.3678C54.0304 48.4869 53.6023 47.7237 52.9821 47.0782C52.3619 46.4327 51.6286 45.9832 50.7821 45.7297C49.9357 45.4761 49.072 45.4674 48.191 45.7034C47.3101 45.9394 46.5609 46.3887 45.9433 47.0511C45.337 47.6939 44.9189 48.4519 44.6891 49.3252C44.4747 50.1943 44.4856 51.0693 44.7216 51.9502C44.9577 52.8311 45.3858 53.5943 46.006 54.2398C46.6375 54.8657 47.3765 55.3054 48.2229 55.559C49.0849 55.8084 49.964 55.813 50.8604 55.5728ZM61.1752 42.6218L55.8665 44.0443L55.6926 43.3952L62.3227 41.6187L58.9862 52.998L64.8744 51.4202L65.0484 52.0693L57.8619 53.9949L61.1752 42.6218ZM64.3913 41.0644L65.1332 40.8656L65.7543 43.1838C65.8873 42.32 66.3012 41.5465 66.996 40.8634C67.6868 40.1648 68.5267 39.683 69.5158 39.418C70.7986 39.0743 71.9206 39.2126 72.8819 39.8329C73.8545 40.4336 74.5355 41.4604 74.9247 42.9131L76.5522 48.9869L75.8104 49.1856L74.1829 43.1119C73.8475 41.8601 73.2775 40.9692 72.4729 40.4394C71.6839 39.9054 70.7407 39.7855 69.6434 40.0795C68.8397 40.2948 68.1476 40.6791 67.567 41.2322C66.9976 41.7657 66.597 42.4031 66.3649 43.1444C66.1483 43.8816 66.1477 44.652 66.3631 45.4557L67.9284 51.2976L67.1866 51.4964L64.3913 41.0644ZM84.457 46.4712C85.2607 46.2559 85.9698 45.8423 86.5843 45.2304C87.1989 44.6184 87.6484 43.8851 87.9329 43.0304L88.2497 44.2127C87.8476 44.9995 87.3459 45.6309 86.7446 46.1067C86.1391 46.5671 85.4037 46.9133 84.5382 47.1452C83.58 47.4019 82.6076 47.3892 81.6209 47.1069C80.6497 46.8205 79.7952 46.3207 79.0574 45.6073C78.3351 44.8898 77.8456 44.052 77.5888 43.0938C77.3114 42.0583 77.3102 41.0647 77.5853 40.1131C77.8562 39.1461 78.3545 38.3168 79.0803 37.6254C79.8216 36.9299 80.7176 36.4413 81.7686 36.1597C83.3759 35.729 84.9134 35.9962 86.3812 36.9612L81.0276 46.0981C81.6494 46.3787 82.2268 46.5553 82.7597 46.6279C83.2885 46.6849 83.8543 46.6327 84.457 46.4712ZM78.312 42.8254C78.6557 44.1082 79.3748 45.0916 80.4691 45.7757L85.4539 37.2096C84.8238 36.8981 84.2443 36.7138 83.7156 36.6567C83.1826 36.5842 82.5839 36.6369 81.9193 36.815C80.9766 37.0676 80.1902 37.5019 79.5602 38.118C78.9415 38.7145 78.5187 39.424 78.2919 40.2468C78.0651 41.0695 78.0718 41.9291 78.312 42.8254ZM88.3948 32.0735C88.1784 32.1315 87.9645 32.1059 87.7531 31.9969C87.5571 31.8838 87.4281 31.7113 87.366 31.4795C87.308 31.2631 87.3356 31.057 87.4487 30.861C87.5773 30.6609 87.7498 30.5319 87.9662 30.4739C88.1825 30.4159 88.3887 30.4435 88.5846 30.5566C88.7961 30.6656 88.9308 30.8283 88.9887 31.0447C89.0508 31.2765 89.0176 31.4925 88.889 31.6926C88.7759 31.8885 88.6111 32.0155 88.3948 32.0735ZM89.1998 49.8219C90.1271 49.5734 90.8227 49.0475 91.2865 48.244C91.7545 47.456 91.8643 46.5984 91.6158 45.6711L88.6405 34.5668L89.3823 34.3681L92.3577 45.4724C92.5565 46.2142 92.5589 46.9341 92.3649 47.6321C92.1709 48.3301 91.8084 48.9241 91.2771 49.4143C90.75 49.92 90.1156 50.2722 89.3737 50.471L89.1998 49.8219ZM29.8832 90.7528C29.1414 90.9516 28.4514 91.004 27.8133 90.9099C27.1711 90.8004 26.6725 90.5779 26.3176 90.2423L25.9884 89.0136C26.4601 89.5995 26.9944 89.9864 27.5914 90.1743C28.1842 90.3467 28.8747 90.3273 29.6629 90.1162C30.4202 89.9132 30.9686 89.5178 31.308 88.93C31.6432 88.3266 31.7115 87.654 31.5127 86.9122C31.3429 86.2786 31.0811 85.8269 30.7273 85.5573C30.3693 85.2723 29.849 85.0307 29.1665 84.8326L28.1489 84.5586C27.4118 84.342 26.8519 84.1691 26.4694 84.0396C26.0982 83.8906 25.7826 83.7019 25.5226 83.4734C25.2584 83.2295 25.0746 82.9143 24.9711 82.5279C24.8054 81.9097 24.8893 81.3572 25.2226 80.8703C25.556 80.3835 26.0704 80.0469 26.7658 79.8605C27.6159 79.6328 28.3785 79.6354 29.0539 79.8686L29.3272 80.8886C28.6783 80.3833 27.9057 80.2508 27.0093 80.491C26.5148 80.6235 26.1461 80.8548 25.9032 81.1849C25.6604 81.515 25.5907 81.8732 25.6943 82.2596C25.7854 82.5996 25.9589 82.8761 26.2147 83.0892C26.4664 83.2868 26.7835 83.4503 27.1661 83.5797C27.5641 83.7049 28.2074 83.8804 29.0961 84.1061C30.0044 84.3431 30.7082 84.6514 31.2074 85.0311C31.7026 85.3954 32.0516 85.9562 32.2545 86.7134C32.5113 87.6716 32.4015 88.5293 31.9252 89.2863C31.4603 90.0238 30.7796 90.5126 29.8832 90.7528ZM22.8936 76.3511L23.8673 76.0903L26.4262 77.6656L27.8778 75.0156L28.8283 74.761L26.9462 78.1226L26.2507 78.309L22.8936 76.3511ZM32.5522 78.5834L33.294 78.3846L33.9773 80.9346C34.171 79.9883 34.64 79.1421 35.3842 78.396C36.1243 77.6345 36.9812 77.1233 37.9549 76.8624C38.9595 76.5932 39.9453 76.5941 40.9123 76.8651C41.8949 77.1319 42.7452 77.6163 43.4634 78.3183C44.1816 79.0204 44.6732 79.8659 44.9382 80.855C45.2032 81.8442 45.2003 82.8222 44.9294 83.7893C44.6584 84.7564 44.1642 85.6011 43.4467 86.3234C42.7447 87.0416 41.8914 87.5353 40.8868 87.8044C39.944 88.057 38.9639 88.0464 37.9463 87.7724C36.9442 87.4943 36.0995 87.0001 35.4122 86.2897L37.3316 93.453L36.5898 93.6518L32.5522 78.5834ZM40.7592 87.1429C41.6092 86.9151 42.3395 86.4876 42.9499 85.8602C43.5562 85.2174 43.9706 84.4769 44.1933 83.6387C44.4273 82.7809 44.4283 81.9193 44.1964 81.0538C43.9686 80.2038 43.539 79.4659 42.9075 78.84C42.276 78.2141 41.5391 77.7821 40.6967 77.544C39.8503 77.2904 39.002 77.2775 38.152 77.5053C37.302 77.7331 36.5661 78.1704 35.9444 78.8174C35.3381 79.4602 34.9102 80.2126 34.6608 81.0745C34.4269 81.9323 34.4238 82.7862 34.6515 83.6362C34.8793 84.4862 35.3089 85.2242 35.9404 85.8501C36.5832 86.4563 37.3356 86.8842 38.1975 87.1336C39.0553 87.3676 39.9092 87.3707 40.7592 87.1429ZM53.6421 84.3867C52.653 84.6517 51.6672 84.6508 50.6846 84.384C49.7021 84.1172 48.8517 83.6328 48.1336 82.9308C47.4113 82.2133 46.9197 81.3677 46.6588 80.394C46.3979 79.4204 46.4029 78.45 46.6738 77.4829C46.9406 76.5004 47.4328 75.648 48.1503 74.9257C48.8678 74.2034 49.7211 73.7097 50.7102 73.4446C51.7147 73.1755 52.7377 73.1913 53.779 73.492C54.8162 73.7773 55.6264 74.2973 56.2096 75.0521L55.5077 72.4325L56.2495 72.2337L59.0448 82.6657L58.3029 82.8645L57.6072 80.2681C57.4218 81.2453 56.9591 82.1147 56.219 82.8762C55.4902 83.6182 54.6312 84.1216 53.6421 84.3867ZM53.5145 83.7251C54.3645 83.4974 55.0948 83.0698 55.7052 82.4424C56.3115 81.7996 56.7259 81.0591 56.9486 80.2209C57.1825 79.3631 57.1836 78.5015 56.9517 77.6361C56.7239 76.786 56.2943 76.0481 55.6628 75.4222C55.0313 74.7963 54.2943 74.3643 53.452 74.1262C52.6055 73.8727 51.7573 73.8598 50.9073 74.0875C50.0573 74.3153 49.3214 74.7527 48.6997 75.3996C48.0934 76.0424 47.6655 76.7948 47.4161 77.6567C47.1821 78.5145 47.179 79.3684 47.4068 80.2184C47.6346 81.0685 48.0642 81.8064 48.6957 82.4323C49.3385 83.0386 50.0909 83.4664 50.9528 83.7158C51.8106 83.9498 52.6645 83.9529 53.5145 83.7251ZM59.1755 71.4497L59.9174 71.2509L60.5385 73.5691C60.6715 72.7053 61.0854 71.9318 61.7803 71.2487C62.471 70.5501 63.3109 70.0683 64.3 69.8033C65.5828 69.4595 66.7048 69.5979 67.6661 70.2182C68.6387 70.8189 69.3197 71.8457 69.709 73.2984L71.3364 79.3722L70.5946 79.5709L68.9671 73.4972C68.6317 72.2454 68.0617 71.3545 67.2572 70.8247C66.4681 70.2907 65.5249 70.1708 64.4276 70.4648C63.6239 70.6801 62.9318 71.0644 62.3512 71.6175C61.7819 72.151 61.3812 72.7884 61.1492 73.5297C60.9326 74.2669 60.9319 75.0373 61.1473 75.841L62.7126 81.6829L61.9708 81.8817L59.1755 71.4497ZM79.2412 76.8565C80.0449 76.6412 80.754 76.2276 81.3686 75.6157C81.9831 75.0037 82.4326 74.2704 82.7171 73.4157L83.0339 74.598C82.6319 75.3848 82.1302 76.0162 81.5288 76.492C80.9234 76.9524 80.1879 77.2986 79.3224 77.5305C78.3642 77.7872 77.3918 77.7745 76.4051 77.4922C75.4339 77.2058 74.5794 76.706 73.8416 75.9926C73.1193 75.2751 72.6298 74.4373 72.373 73.4791C72.0956 72.4436 72.0944 71.45 72.3695 70.4984C72.6404 69.5313 73.1388 68.7021 73.8646 68.0107C74.6058 67.3152 75.5019 66.8266 76.5528 66.545C78.1601 66.1143 79.6976 66.3815 81.1654 67.3465L75.8118 76.4834C76.4336 76.764 77.011 76.9406 77.5439 77.0132C78.0727 77.0702 78.6385 77.018 79.2412 76.8565ZM73.0962 73.2107C73.44 74.4935 74.159 75.4769 75.2533 76.161L80.2381 67.5949C79.608 67.2834 79.0286 67.0991 78.4998 67.042C77.9668 66.9695 77.3681 67.0222 76.7035 67.2003C75.7608 67.4529 74.9744 67.8872 74.3444 68.5033C73.7257 69.0998 73.3029 69.8093 73.0761 70.6321C72.8494 71.4548 72.8561 72.3144 73.0962 73.2107ZM71.6312 63.292L72.6048 63.0311L75.6274 64.4822L77.5426 61.708L78.4931 61.4533L76.1474 64.9392L75.4519 65.1256L71.6312 63.292ZM89.8522 74.6345C89.1259 74.8291 88.4178 74.8449 87.7281 74.6819C87.0343 74.5034 86.4289 74.1604 85.9119 73.6529C85.395 73.1454 85.0371 72.5207 84.8383 71.7789L81.1734 58.1014L81.9153 57.9026L85.5801 71.5801C85.7458 72.1983 86.034 72.7174 86.4447 73.1374C86.8708 73.5533 87.3705 73.8418 87.9438 74.0029C88.5128 74.1486 89.091 74.1427 89.6783 73.9854L89.8522 74.6345ZM94.7889 73.3614C94.0471 73.5602 93.3571 73.6125 92.719 73.5185C92.0768 73.409 91.5782 73.1864 91.2233 72.8509L90.894 71.6222C91.3658 72.2081 91.9001 72.595 92.4971 72.7829C93.0899 72.9553 93.7804 72.9359 94.5686 72.7247C95.3259 72.5218 95.8742 72.1264 96.2136 71.5385C96.5489 70.9352 96.6172 70.2626 96.4184 69.5208C96.2486 68.8871 95.9868 68.4355 95.633 68.1659C95.275 67.8808 94.7547 67.6393 94.0722 67.4412L93.0546 67.1672C92.3174 66.9506 91.7576 66.7776 91.3751 66.6482C91.0039 66.4992 90.6883 66.3105 90.4283 66.082C90.1641 65.838 89.9803 65.5229 89.8768 65.1365C89.7111 64.5183 89.795 63.9658 90.1283 63.4789C90.4617 62.992 90.9761 62.6554 91.6715 62.4691C92.5215 62.2413 93.2842 62.244 93.9596 62.4772L94.2329 63.4972C93.584 62.9919 92.8114 62.8594 91.915 63.0996C91.4205 63.2321 91.0518 63.4634 90.8089 63.7935C90.5661 64.1236 90.4964 64.4818 90.6 64.8682C90.6911 65.2082 90.8645 65.4847 91.1204 65.6977C91.3721 65.8953 91.6892 66.0588 92.0718 66.1882C92.4697 66.3135 93.1131 66.489 94.0018 66.7146C94.9101 66.9516 95.6138 67.26 96.1131 67.6397C96.6083 68.004 96.9573 68.5647 97.1602 69.322C97.417 70.2802 97.3072 71.1379 96.8309 71.8949C96.3659 72.6324 95.6853 73.1212 94.7889 73.3614ZM95.6068 54.2836L96.3487 54.0849L99.1688 64.6096L102.326 59.8875L103.277 59.6328L99.6192 65.0852L107.277 69.7418L106.281 70.0089L99.5042 65.8614L100.995 71.4252L100.253 71.6239L95.6068 54.2836ZM114.517 72.7464C112.786 73.2102 111.253 72.9585 109.917 71.9913L109.6 70.809C110.325 71.476 111.064 71.9157 111.817 72.1282C112.574 72.3561 113.385 72.3541 114.25 72.1221C115.131 71.8861 115.831 71.4998 116.35 70.9632C116.884 70.4225 117.227 69.7842 117.377 69.0481C117.532 68.3275 117.504 67.5731 117.293 66.7849L116.821 65.023C116.644 65.8488 116.231 66.5641 115.582 67.1688C114.944 67.7539 114.184 68.1645 113.303 68.4006C112.422 68.6366 111.59 68.6526 110.806 68.4484C110.023 68.2442 109.345 67.8462 108.772 67.2542C108.215 66.6582 107.814 65.9042 107.57 64.9924L105.942 58.9186L106.684 58.7199L108.311 64.7936C108.535 65.6282 108.898 66.3013 109.399 66.8129C109.912 67.3049 110.496 67.6289 111.15 67.7848C111.805 67.9406 112.472 67.9275 113.152 67.7453C113.894 67.5465 114.534 67.1845 115.073 66.6592C115.607 66.1185 115.971 65.4992 116.165 64.8012C116.37 64.0836 116.38 63.3771 116.193 62.6816L114.566 56.6079L115.308 56.4091L118.016 66.5166C118.264 67.4439 118.295 68.3302 118.107 69.1755C117.939 70.0322 117.55 70.7742 116.94 71.4016C116.329 72.029 115.522 72.4772 114.517 72.7464ZM112.271 52.4025L113.222 52.1478L110.714 55.6772L109.74 55.9381L112.271 52.4025ZM66.1985 110.01C65.4566 110.209 64.7667 110.261 64.1286 110.167C63.4864 110.057 62.9878 109.835 62.6328 109.499L62.3036 108.271C62.7753 108.857 63.3097 109.243 63.9066 109.431C64.4995 109.604 65.19 109.584 65.9782 109.373C66.7355 109.17 67.2838 108.775 67.6232 108.187C67.9585 107.584 68.0267 106.911 67.828 106.169C67.6582 105.536 67.3964 105.084 67.0425 104.814C66.6846 104.529 66.1643 104.288 65.4818 104.09L64.4642 103.816C63.727 103.599 63.1672 103.426 62.7846 103.297C62.4134 103.148 62.0978 102.959 61.8378 102.73C61.5737 102.487 61.3899 102.171 61.2863 101.785C61.1207 101.167 61.2045 100.614 61.5379 100.127C61.8712 99.6406 62.3856 99.304 63.0811 99.1176C63.9311 98.8898 64.6938 98.8925 65.3692 99.1257L65.6425 100.146C64.9936 99.6404 64.221 99.5079 63.3246 99.7481C62.83 99.8806 62.4613 100.112 62.2185 100.442C61.9757 100.772 61.906 101.13 62.0095 101.517C62.1006 101.857 62.2741 102.133 62.53 102.346C62.7817 102.544 63.0988 102.707 63.4813 102.837C63.8793 102.962 64.5227 103.137 65.4113 103.363C66.3196 103.6 67.0234 103.909 67.5227 104.288C68.0179 104.652 68.3669 105.213 68.5698 105.971C68.8266 106.929 68.7168 107.786 68.2405 108.543C67.7755 109.281 67.0949 109.77 66.1985 110.01ZM77.7926 95.449L75.5454 107.555L67.5229 98.2007L68.3343 97.9833L75.0919 105.863L76.9813 95.6664L77.7926 95.449ZM86.6919 103.848C87.4956 103.633 88.2047 103.219 88.8192 102.607C89.4338 101.995 89.8833 101.262 90.1678 100.407L90.4846 101.589C90.0825 102.376 89.5809 103.008 88.9795 103.483C88.374 103.944 87.6386 104.29 86.7731 104.522C85.8149 104.779 84.8425 104.766 83.8558 104.484C82.8846 104.197 82.0301 103.697 81.2923 102.984C80.57 102.266 80.0805 101.429 79.8237 100.47C79.5463 99.4349 79.5451 98.4414 79.8202 97.4897C80.0911 96.5227 80.5895 95.6934 81.3152 95.002C82.0565 94.3065 82.9526 93.8179 84.0035 93.5363C85.6108 93.1056 87.1483 93.3728 88.6161 94.3378L83.2625 103.475C83.8843 103.755 84.4617 103.932 84.9946 104.004C85.5234 104.062 86.0892 104.009 86.6919 103.848ZM80.5469 100.202C80.8906 101.485 81.6097 102.468 82.704 103.152L87.6888 94.5863C87.0587 94.2747 86.4793 94.0904 85.9505 94.0333C85.4175 93.9608 84.8188 94.0136 84.1542 94.1916C83.2115 94.4442 82.4251 94.8786 81.7951 95.4946C81.1764 96.0911 80.7536 96.8007 80.5268 97.6234C80.3 98.4461 80.3067 99.3057 80.5469 100.202ZM79.0818 90.2833L80.0555 90.0224L83.0781 91.4735L84.9933 88.6993L85.9438 88.4446L83.5981 91.9305L82.9026 92.1169L79.0818 90.2833ZM97.0525 101.618C95.9088 101.925 94.8652 101.832 93.9215 101.339C92.9933 100.843 92.3657 99.9837 92.0385 98.7628L89.1315 87.9135L89.8733 87.7147L90.9976 91.9107L94.1968 91.0535L94.3707 91.7026L91.1715 92.5598L92.7804 98.564C93.0537 99.584 93.5704 100.307 94.3305 100.733C95.1019 101.139 95.9513 101.218 96.8785 100.969L97.0525 101.618Z" fill="black"/>
</svg>
